<?xml version="1.0" encoding="utf-8" standalone="no"?>
<!DOCTYPE svg PUBLIC "-//W3C//DTD SVG 1.1//EN"
  "http://www.w3.org/Graphics/SVG/1.1/DTD/svg11.dtd">
<svg xmlns:xlink="http://www.w3.org/1999/xlink" width="360pt" height="288pt" viewBox="0 0 360 288" xmlns="http://www.w3.org/2000/svg" version="1.1">
 <metadata>
  <rdf:RDF xmlns:dc="http://purl.org/dc/elements/1.1/" xmlns:cc="http://creativecommons.org/ns#" xmlns:rdf="http://www.w3.org/1999/02/22-rdf-syntax-ns#">
   <cc:Work>
    <dc:type rdf:resource="http://purl.org/dc/dcmitype/StillImage"/>
    <dc:date>2022-06-12T10:33:04.783128</dc:date>
    <dc:format>image/svg+xml</dc:format>
    <dc:creator>
     <cc:Agent>
      <dc:title>Matplotlib v3.5.1, https://matplotlib.org/</dc:title>
     </cc:Agent>
    </dc:creator>
   </cc:Work>
  </rdf:RDF>
 </metadata>
 <defs>
  <style type="text/css">*{stroke-linejoin: round; stroke-linecap: butt}</style>
 </defs>
 <g id="figure_1">
  <g id="patch_1">
   <path d="M 0 288 
L 360 288 
L 360 0 
L 0 0 
z
" style="fill: #ffffff"/>
  </g>
  <g id="axes_1">
   <g id="patch_2">
    <path d="M 45 252 
L 324 252 
L 324 34.56 
L 45 34.56 
z
" style="fill: #eaeaf2"/>
   </g>
   <g id="matplotlib.axis_1">
    <g id="xtick_1">
     <g id="line2d_1">
      <path d="M 45 252 
L 45 34.56 
" clip-path="url(#p9a8ecdc394)" style="fill: none; stroke: #ffffff; stroke-linecap: round"/>
     </g>
     <g id="line2d_2"/>
     <g id="text_1">
      <!-- 0 -->
      <g style="fill: #262626" transform="translate(42.219531 266.157812)scale(0.1 -0.1)">
       <defs>
        <path id="ArialMT-30" d="M 266 2259 
Q 266 3072 433 3567 
Q 600 4063 929 4331 
Q 1259 4600 1759 4600 
Q 2128 4600 2406 4451 
Q 2684 4303 2865 4023 
Q 3047 3744 3150 3342 
Q 3253 2941 3253 2259 
Q 3253 1453 3087 958 
Q 2922 463 2592 192 
Q 2263 -78 1759 -78 
Q 1097 -78 719 397 
Q 266 969 266 2259 
z
M 844 2259 
Q 844 1131 1108 757 
Q 1372 384 1759 384 
Q 2147 384 2411 759 
Q 2675 1134 2675 2259 
Q 2675 3391 2411 3762 
Q 2147 4134 1753 4134 
Q 1366 4134 1134 3806 
Q 844 3388 844 2259 
z
" transform="scale(0.015625)"/>
       </defs>
       <use xlink:href="#ArialMT-30"/>
      </g>
     </g>
    </g>
    <g id="xtick_2">
     <g id="line2d_3">
      <path d="M 98.653846 252 
L 98.653846 34.56 
" clip-path="url(#p9a8ecdc394)" style="fill: none; stroke: #ffffff; stroke-linecap: round"/>
     </g>
     <g id="line2d_4"/>
     <g id="text_2">
      <!-- 5 -->
      <g style="fill: #262626" transform="translate(95.873377 266.157812)scale(0.1 -0.1)">
       <defs>
        <path id="ArialMT-35" d="M 266 1200 
L 856 1250 
Q 922 819 1161 601 
Q 1400 384 1738 384 
Q 2144 384 2425 690 
Q 2706 997 2706 1503 
Q 2706 1984 2436 2262 
Q 2166 2541 1728 2541 
Q 1456 2541 1237 2417 
Q 1019 2294 894 2097 
L 366 2166 
L 809 4519 
L 3088 4519 
L 3088 3981 
L 1259 3981 
L 1013 2750 
Q 1425 3038 1878 3038 
Q 2478 3038 2890 2622 
Q 3303 2206 3303 1553 
Q 3303 931 2941 478 
Q 2500 -78 1738 -78 
Q 1113 -78 717 272 
Q 322 622 266 1200 
z
" transform="scale(0.015625)"/>
       </defs>
       <use xlink:href="#ArialMT-35"/>
      </g>
     </g>
    </g>
    <g id="xtick_3">
     <g id="line2d_5">
      <path d="M 152.307692 252 
L 152.307692 34.56 
" clip-path="url(#p9a8ecdc394)" style="fill: none; stroke: #ffffff; stroke-linecap: round"/>
     </g>
     <g id="line2d_6"/>
     <g id="text_3">
      <!-- 10 -->
      <g style="fill: #262626" transform="translate(146.746755 266.157812)scale(0.1 -0.1)">
       <defs>
        <path id="ArialMT-31" d="M 2384 0 
L 1822 0 
L 1822 3584 
Q 1619 3391 1289 3197 
Q 959 3003 697 2906 
L 697 3450 
Q 1169 3672 1522 3987 
Q 1875 4303 2022 4600 
L 2384 4600 
L 2384 0 
z
" transform="scale(0.015625)"/>
       </defs>
       <use xlink:href="#ArialMT-31"/>
       <use xlink:href="#ArialMT-30" x="55.615234"/>
      </g>
     </g>
    </g>
    <g id="xtick_4">
     <g id="line2d_7">
      <path d="M 205.961538 252 
L 205.961538 34.56 
" clip-path="url(#p9a8ecdc394)" style="fill: none; stroke: #ffffff; stroke-linecap: round"/>
     </g>
     <g id="line2d_8"/>
     <g id="text_4">
      <!-- 15 -->
      <g style="fill: #262626" transform="translate(200.400601 266.157812)scale(0.1 -0.1)">
       <use xlink:href="#ArialMT-31"/>
       <use xlink:href="#ArialMT-35" x="55.615234"/>
      </g>
     </g>
    </g>
    <g id="xtick_5">
     <g id="line2d_9">
      <path d="M 259.615385 252 
L 259.615385 34.56 
" clip-path="url(#p9a8ecdc394)" style="fill: none; stroke: #ffffff; stroke-linecap: round"/>
     </g>
     <g id="line2d_10"/>
     <g id="text_5">
      <!-- 20 -->
      <g style="fill: #262626" transform="translate(254.054447 266.157812)scale(0.1 -0.1)">
       <defs>
        <path id="ArialMT-32" d="M 3222 541 
L 3222 0 
L 194 0 
Q 188 203 259 391 
Q 375 700 629 1000 
Q 884 1300 1366 1694 
Q 2113 2306 2375 2664 
Q 2638 3022 2638 3341 
Q 2638 3675 2398 3904 
Q 2159 4134 1775 4134 
Q 1369 4134 1125 3890 
Q 881 3647 878 3216 
L 300 3275 
Q 359 3922 746 4261 
Q 1134 4600 1788 4600 
Q 2447 4600 2831 4234 
Q 3216 3869 3216 3328 
Q 3216 3053 3103 2787 
Q 2991 2522 2730 2228 
Q 2469 1934 1863 1422 
Q 1356 997 1212 845 
Q 1069 694 975 541 
L 3222 541 
z
" transform="scale(0.015625)"/>
       </defs>
       <use xlink:href="#ArialMT-32"/>
       <use xlink:href="#ArialMT-30" x="55.615234"/>
      </g>
     </g>
    </g>
    <g id="xtick_6">
     <g id="line2d_11">
      <path d="M 313.269231 252 
L 313.269231 34.56 
" clip-path="url(#p9a8ecdc394)" style="fill: none; stroke: #ffffff; stroke-linecap: round"/>
     </g>
     <g id="line2d_12"/>
     <g id="text_6">
      <!-- 25 -->
      <g style="fill: #262626" transform="translate(307.708293 266.157812)scale(0.1 -0.1)">
       <use xlink:href="#ArialMT-32"/>
       <use xlink:href="#ArialMT-35" x="55.615234"/>
      </g>
     </g>
    </g>
    <g id="text_7">
     <!-- Epochs -->
     <g style="fill: #262626" transform="translate(166.155781 280.018906)scale(0.11 -0.11)">
      <defs>
       <path id="ArialMT-45" d="M 506 0 
L 506 4581 
L 3819 4581 
L 3819 4041 
L 1113 4041 
L 1113 2638 
L 3647 2638 
L 3647 2100 
L 1113 2100 
L 1113 541 
L 3925 541 
L 3925 0 
L 506 0 
z
" transform="scale(0.015625)"/>
       <path id="ArialMT-70" d="M 422 -1272 
L 422 3319 
L 934 3319 
L 934 2888 
Q 1116 3141 1344 3267 
Q 1572 3394 1897 3394 
Q 2322 3394 2647 3175 
Q 2972 2956 3137 2557 
Q 3303 2159 3303 1684 
Q 3303 1175 3120 767 
Q 2938 359 2589 142 
Q 2241 -75 1856 -75 
Q 1575 -75 1351 44 
Q 1128 163 984 344 
L 984 -1272 
L 422 -1272 
z
M 931 1641 
Q 931 1000 1190 694 
Q 1450 388 1819 388 
Q 2194 388 2461 705 
Q 2728 1022 2728 1688 
Q 2728 2322 2467 2637 
Q 2206 2953 1844 2953 
Q 1484 2953 1207 2617 
Q 931 2281 931 1641 
z
" transform="scale(0.015625)"/>
       <path id="ArialMT-6f" d="M 213 1659 
Q 213 2581 725 3025 
Q 1153 3394 1769 3394 
Q 2453 3394 2887 2945 
Q 3322 2497 3322 1706 
Q 3322 1066 3130 698 
Q 2938 331 2570 128 
Q 2203 -75 1769 -75 
Q 1072 -75 642 372 
Q 213 819 213 1659 
z
M 791 1659 
Q 791 1022 1069 705 
Q 1347 388 1769 388 
Q 2188 388 2466 706 
Q 2744 1025 2744 1678 
Q 2744 2294 2464 2611 
Q 2184 2928 1769 2928 
Q 1347 2928 1069 2612 
Q 791 2297 791 1659 
z
" transform="scale(0.015625)"/>
       <path id="ArialMT-63" d="M 2588 1216 
L 3141 1144 
Q 3050 572 2676 248 
Q 2303 -75 1759 -75 
Q 1078 -75 664 370 
Q 250 816 250 1647 
Q 250 2184 428 2587 
Q 606 2991 970 3192 
Q 1334 3394 1763 3394 
Q 2303 3394 2647 3120 
Q 2991 2847 3088 2344 
L 2541 2259 
Q 2463 2594 2264 2762 
Q 2066 2931 1784 2931 
Q 1359 2931 1093 2626 
Q 828 2322 828 1663 
Q 828 994 1084 691 
Q 1341 388 1753 388 
Q 2084 388 2306 591 
Q 2528 794 2588 1216 
z
" transform="scale(0.015625)"/>
       <path id="ArialMT-68" d="M 422 0 
L 422 4581 
L 984 4581 
L 984 2938 
Q 1378 3394 1978 3394 
Q 2347 3394 2619 3248 
Q 2891 3103 3008 2847 
Q 3125 2591 3125 2103 
L 3125 0 
L 2563 0 
L 2563 2103 
Q 2563 2525 2380 2717 
Q 2197 2909 1863 2909 
Q 1613 2909 1392 2779 
Q 1172 2650 1078 2428 
Q 984 2206 984 1816 
L 984 0 
L 422 0 
z
" transform="scale(0.015625)"/>
       <path id="ArialMT-73" d="M 197 991 
L 753 1078 
Q 800 744 1014 566 
Q 1228 388 1613 388 
Q 2000 388 2187 545 
Q 2375 703 2375 916 
Q 2375 1106 2209 1216 
Q 2094 1291 1634 1406 
Q 1016 1563 777 1677 
Q 538 1791 414 1992 
Q 291 2194 291 2438 
Q 291 2659 392 2848 
Q 494 3038 669 3163 
Q 800 3259 1026 3326 
Q 1253 3394 1513 3394 
Q 1903 3394 2198 3281 
Q 2494 3169 2634 2976 
Q 2775 2784 2828 2463 
L 2278 2388 
Q 2241 2644 2061 2787 
Q 1881 2931 1553 2931 
Q 1166 2931 1000 2803 
Q 834 2675 834 2503 
Q 834 2394 903 2306 
Q 972 2216 1119 2156 
Q 1203 2125 1616 2013 
Q 2213 1853 2448 1751 
Q 2684 1650 2818 1456 
Q 2953 1263 2953 975 
Q 2953 694 2789 445 
Q 2625 197 2315 61 
Q 2006 -75 1616 -75 
Q 969 -75 630 194 
Q 291 463 197 991 
z
" transform="scale(0.015625)"/>
      </defs>
      <use xlink:href="#ArialMT-45"/>
      <use xlink:href="#ArialMT-70" x="66.699219"/>
      <use xlink:href="#ArialMT-6f" x="122.314453"/>
      <use xlink:href="#ArialMT-63" x="177.929688"/>
      <use xlink:href="#ArialMT-68" x="227.929688"/>
      <use xlink:href="#ArialMT-73" x="283.544922"/>
     </g>
    </g>
   </g>
   <g id="matplotlib.axis_2">
    <g id="ytick_1">
     <g id="line2d_13">
      <path d="M 45 245.509254 
L 324 245.509254 
" clip-path="url(#p9a8ecdc394)" style="fill: none; stroke: #ffffff; stroke-linecap: round"/>
     </g>
     <g id="line2d_14"/>
     <g id="text_8">
      <!-- 0.4 -->
      <g style="fill: #262626" transform="translate(24.1 249.08816)scale(0.1 -0.1)">
       <defs>
        <path id="ArialMT-2e" d="M 581 0 
L 581 641 
L 1222 641 
L 1222 0 
L 581 0 
z
" transform="scale(0.015625)"/>
        <path id="ArialMT-34" d="M 2069 0 
L 2069 1097 
L 81 1097 
L 81 1613 
L 2172 4581 
L 2631 4581 
L 2631 1613 
L 3250 1613 
L 3250 1097 
L 2631 1097 
L 2631 0 
L 2069 0 
z
M 2069 1613 
L 2069 3678 
L 634 1613 
L 2069 1613 
z
" transform="scale(0.015625)"/>
       </defs>
       <use xlink:href="#ArialMT-30"/>
       <use xlink:href="#ArialMT-2e" x="55.615234"/>
       <use xlink:href="#ArialMT-34" x="83.398438"/>
      </g>
     </g>
    </g>
    <g id="ytick_2">
     <g id="line2d_15">
      <path d="M 45 213.055522 
L 324 213.055522 
" clip-path="url(#p9a8ecdc394)" style="fill: none; stroke: #ffffff; stroke-linecap: round"/>
     </g>
     <g id="line2d_16"/>
     <g id="text_9">
      <!-- 0.5 -->
      <g style="fill: #262626" transform="translate(24.1 216.634429)scale(0.1 -0.1)">
       <use xlink:href="#ArialMT-30"/>
       <use xlink:href="#ArialMT-2e" x="55.615234"/>
       <use xlink:href="#ArialMT-35" x="83.398438"/>
      </g>
     </g>
    </g>
    <g id="ytick_3">
     <g id="line2d_17">
      <path d="M 45 180.601791 
L 324 180.601791 
" clip-path="url(#p9a8ecdc394)" style="fill: none; stroke: #ffffff; stroke-linecap: round"/>
     </g>
     <g id="line2d_18"/>
     <g id="text_10">
      <!-- 0.6 -->
      <g style="fill: #262626" transform="translate(24.1 184.180697)scale(0.1 -0.1)">
       <defs>
        <path id="ArialMT-36" d="M 3184 3459 
L 2625 3416 
Q 2550 3747 2413 3897 
Q 2184 4138 1850 4138 
Q 1581 4138 1378 3988 
Q 1113 3794 959 3422 
Q 806 3050 800 2363 
Q 1003 2672 1297 2822 
Q 1591 2972 1913 2972 
Q 2475 2972 2870 2558 
Q 3266 2144 3266 1488 
Q 3266 1056 3080 686 
Q 2894 316 2569 119 
Q 2244 -78 1831 -78 
Q 1128 -78 684 439 
Q 241 956 241 2144 
Q 241 3472 731 4075 
Q 1159 4600 1884 4600 
Q 2425 4600 2770 4297 
Q 3116 3994 3184 3459 
z
M 888 1484 
Q 888 1194 1011 928 
Q 1134 663 1356 523 
Q 1578 384 1822 384 
Q 2178 384 2434 671 
Q 2691 959 2691 1453 
Q 2691 1928 2437 2201 
Q 2184 2475 1800 2475 
Q 1419 2475 1153 2201 
Q 888 1928 888 1484 
z
" transform="scale(0.015625)"/>
       </defs>
       <use xlink:href="#ArialMT-30"/>
       <use xlink:href="#ArialMT-2e" x="55.615234"/>
       <use xlink:href="#ArialMT-36" x="83.398438"/>
      </g>
     </g>
    </g>
    <g id="ytick_4">
     <g id="line2d_19">
      <path d="M 45 148.14806 
L 324 148.14806 
" clip-path="url(#p9a8ecdc394)" style="fill: none; stroke: #ffffff; stroke-linecap: round"/>
     </g>
     <g id="line2d_20"/>
     <g id="text_11">
      <!-- 0.7 -->
      <g style="fill: #262626" transform="translate(24.1 151.726966)scale(0.1 -0.1)">
       <defs>
        <path id="ArialMT-37" d="M 303 3981 
L 303 4522 
L 3269 4522 
L 3269 4084 
Q 2831 3619 2401 2847 
Q 1972 2075 1738 1259 
Q 1569 684 1522 0 
L 944 0 
Q 953 541 1156 1306 
Q 1359 2072 1739 2783 
Q 2119 3494 2547 3981 
L 303 3981 
z
" transform="scale(0.015625)"/>
       </defs>
       <use xlink:href="#ArialMT-30"/>
       <use xlink:href="#ArialMT-2e" x="55.615234"/>
       <use xlink:href="#ArialMT-37" x="83.398438"/>
      </g>
     </g>
    </g>
    <g id="ytick_5">
     <g id="line2d_21">
      <path d="M 45 115.694328 
L 324 115.694328 
" clip-path="url(#p9a8ecdc394)" style="fill: none; stroke: #ffffff; stroke-linecap: round"/>
     </g>
     <g id="line2d_22"/>
     <g id="text_12">
      <!-- 0.8 -->
      <g style="fill: #262626" transform="translate(24.1 119.273235)scale(0.1 -0.1)">
       <defs>
        <path id="ArialMT-38" d="M 1131 2484 
Q 781 2613 612 2850 
Q 444 3088 444 3419 
Q 444 3919 803 4259 
Q 1163 4600 1759 4600 
Q 2359 4600 2725 4251 
Q 3091 3903 3091 3403 
Q 3091 3084 2923 2848 
Q 2756 2613 2416 2484 
Q 2838 2347 3058 2040 
Q 3278 1734 3278 1309 
Q 3278 722 2862 322 
Q 2447 -78 1769 -78 
Q 1091 -78 675 323 
Q 259 725 259 1325 
Q 259 1772 486 2073 
Q 713 2375 1131 2484 
z
M 1019 3438 
Q 1019 3113 1228 2906 
Q 1438 2700 1772 2700 
Q 2097 2700 2305 2904 
Q 2513 3109 2513 3406 
Q 2513 3716 2298 3927 
Q 2084 4138 1766 4138 
Q 1444 4138 1231 3931 
Q 1019 3725 1019 3438 
z
M 838 1322 
Q 838 1081 952 856 
Q 1066 631 1291 507 
Q 1516 384 1775 384 
Q 2178 384 2440 643 
Q 2703 903 2703 1303 
Q 2703 1709 2433 1975 
Q 2163 2241 1756 2241 
Q 1359 2241 1098 1978 
Q 838 1716 838 1322 
z
" transform="scale(0.015625)"/>
       </defs>
       <use xlink:href="#ArialMT-30"/>
       <use xlink:href="#ArialMT-2e" x="55.615234"/>
       <use xlink:href="#ArialMT-38" x="83.398438"/>
      </g>
     </g>
    </g>
    <g id="ytick_6">
     <g id="line2d_23">
      <path d="M 45 83.240597 
L 324 83.240597 
" clip-path="url(#p9a8ecdc394)" style="fill: none; stroke: #ffffff; stroke-linecap: round"/>
     </g>
     <g id="line2d_24"/>
     <g id="text_13">
      <!-- 0.9 -->
      <g style="fill: #262626" transform="translate(24.1 86.819503)scale(0.1 -0.1)">
       <defs>
        <path id="ArialMT-39" d="M 350 1059 
L 891 1109 
Q 959 728 1153 556 
Q 1347 384 1650 384 
Q 1909 384 2104 503 
Q 2300 622 2425 820 
Q 2550 1019 2634 1356 
Q 2719 1694 2719 2044 
Q 2719 2081 2716 2156 
Q 2547 1888 2255 1720 
Q 1963 1553 1622 1553 
Q 1053 1553 659 1965 
Q 266 2378 266 3053 
Q 266 3750 677 4175 
Q 1088 4600 1706 4600 
Q 2153 4600 2523 4359 
Q 2894 4119 3086 3673 
Q 3278 3228 3278 2384 
Q 3278 1506 3087 986 
Q 2897 466 2520 194 
Q 2144 -78 1638 -78 
Q 1100 -78 759 220 
Q 419 519 350 1059 
z
M 2653 3081 
Q 2653 3566 2395 3850 
Q 2138 4134 1775 4134 
Q 1400 4134 1122 3828 
Q 844 3522 844 3034 
Q 844 2597 1108 2323 
Q 1372 2050 1759 2050 
Q 2150 2050 2401 2323 
Q 2653 2597 2653 3081 
z
" transform="scale(0.015625)"/>
       </defs>
       <use xlink:href="#ArialMT-30"/>
       <use xlink:href="#ArialMT-2e" x="55.615234"/>
       <use xlink:href="#ArialMT-39" x="83.398438"/>
      </g>
     </g>
    </g>
    <g id="ytick_7">
     <g id="line2d_25">
      <path d="M 45 50.786866 
L 324 50.786866 
" clip-path="url(#p9a8ecdc394)" style="fill: none; stroke: #ffffff; stroke-linecap: round"/>
     </g>
     <g id="line2d_26"/>
     <g id="text_14">
      <!-- 1.0 -->
      <g style="fill: #262626" transform="translate(24.1 54.365772)scale(0.1 -0.1)">
       <use xlink:href="#ArialMT-31"/>
       <use xlink:href="#ArialMT-2e" x="55.615234"/>
       <use xlink:href="#ArialMT-30" x="83.398438"/>
      </g>
     </g>
    </g>
    <g id="text_15">
     <!-- Accuracy/Loss -->
     <g style="fill: #262626" transform="translate(17.784844 179.042031)rotate(-90)scale(0.11 -0.11)">
      <defs>
       <path id="ArialMT-41" d="M -9 0 
L 1750 4581 
L 2403 4581 
L 4278 0 
L 3588 0 
L 3053 1388 
L 1138 1388 
L 634 0 
L -9 0 
z
M 1313 1881 
L 2866 1881 
L 2388 3150 
Q 2169 3728 2063 4100 
Q 1975 3659 1816 3225 
L 1313 1881 
z
" transform="scale(0.015625)"/>
       <path id="ArialMT-75" d="M 2597 0 
L 2597 488 
Q 2209 -75 1544 -75 
Q 1250 -75 995 37 
Q 741 150 617 320 
Q 494 491 444 738 
Q 409 903 409 1263 
L 409 3319 
L 972 3319 
L 972 1478 
Q 972 1038 1006 884 
Q 1059 663 1231 536 
Q 1403 409 1656 409 
Q 1909 409 2131 539 
Q 2353 669 2445 892 
Q 2538 1116 2538 1541 
L 2538 3319 
L 3100 3319 
L 3100 0 
L 2597 0 
z
" transform="scale(0.015625)"/>
       <path id="ArialMT-72" d="M 416 0 
L 416 3319 
L 922 3319 
L 922 2816 
Q 1116 3169 1280 3281 
Q 1444 3394 1641 3394 
Q 1925 3394 2219 3213 
L 2025 2691 
Q 1819 2813 1613 2813 
Q 1428 2813 1281 2702 
Q 1134 2591 1072 2394 
Q 978 2094 978 1738 
L 978 0 
L 416 0 
z
" transform="scale(0.015625)"/>
       <path id="ArialMT-61" d="M 2588 409 
Q 2275 144 1986 34 
Q 1697 -75 1366 -75 
Q 819 -75 525 192 
Q 231 459 231 875 
Q 231 1119 342 1320 
Q 453 1522 633 1644 
Q 813 1766 1038 1828 
Q 1203 1872 1538 1913 
Q 2219 1994 2541 2106 
Q 2544 2222 2544 2253 
Q 2544 2597 2384 2738 
Q 2169 2928 1744 2928 
Q 1347 2928 1158 2789 
Q 969 2650 878 2297 
L 328 2372 
Q 403 2725 575 2942 
Q 747 3159 1072 3276 
Q 1397 3394 1825 3394 
Q 2250 3394 2515 3294 
Q 2781 3194 2906 3042 
Q 3031 2891 3081 2659 
Q 3109 2516 3109 2141 
L 3109 1391 
Q 3109 606 3145 398 
Q 3181 191 3288 0 
L 2700 0 
Q 2613 175 2588 409 
z
M 2541 1666 
Q 2234 1541 1622 1453 
Q 1275 1403 1131 1340 
Q 988 1278 909 1158 
Q 831 1038 831 891 
Q 831 666 1001 516 
Q 1172 366 1500 366 
Q 1825 366 2078 508 
Q 2331 650 2450 897 
Q 2541 1088 2541 1459 
L 2541 1666 
z
" transform="scale(0.015625)"/>
       <path id="ArialMT-79" d="M 397 -1278 
L 334 -750 
Q 519 -800 656 -800 
Q 844 -800 956 -737 
Q 1069 -675 1141 -563 
Q 1194 -478 1313 -144 
Q 1328 -97 1363 -6 
L 103 3319 
L 709 3319 
L 1400 1397 
Q 1534 1031 1641 628 
Q 1738 1016 1872 1384 
L 2581 3319 
L 3144 3319 
L 1881 -56 
Q 1678 -603 1566 -809 
Q 1416 -1088 1222 -1217 
Q 1028 -1347 759 -1347 
Q 597 -1347 397 -1278 
z
" transform="scale(0.015625)"/>
       <path id="ArialMT-2f" d="M 0 -78 
L 1328 4659 
L 1778 4659 
L 453 -78 
L 0 -78 
z
" transform="scale(0.015625)"/>
       <path id="ArialMT-4c" d="M 469 0 
L 469 4581 
L 1075 4581 
L 1075 541 
L 3331 541 
L 3331 0 
L 469 0 
z
" transform="scale(0.015625)"/>
      </defs>
      <use xlink:href="#ArialMT-41"/>
      <use xlink:href="#ArialMT-63" x="66.699219"/>
      <use xlink:href="#ArialMT-63" x="116.699219"/>
      <use xlink:href="#ArialMT-75" x="166.699219"/>
      <use xlink:href="#ArialMT-72" x="222.314453"/>
      <use xlink:href="#ArialMT-61" x="255.615234"/>
      <use xlink:href="#ArialMT-63" x="311.230469"/>
      <use xlink:href="#ArialMT-79" x="361.230469"/>
      <use xlink:href="#ArialMT-2f" x="411.230469"/>
      <use xlink:href="#ArialMT-4c" x="439.013672"/>
      <use xlink:href="#ArialMT-6f" x="494.628906"/>
      <use xlink:href="#ArialMT-73" x="550.244141"/>
      <use xlink:href="#ArialMT-73" x="600.244141"/>
     </g>
    </g>
   </g>
   <g id="line2d_27">
    <path d="M 55.730769 224.641504 
L 66.461538 159.312143 
L 77.192308 100.31126 
L 87.923077 86.615785 
L 98.653846 71.849337 
L 109.384615 66.591833 
L 120.115385 62.372848 
L 130.846154 57.115343 
L 141.576923 63.443821 
L 152.307692 56.04437 
L 163.038462 58.153863 
L 173.769231 58.153863 
L 184.5 53.837516 
L 195.230769 51.825385 
L 205.961538 58.153863 
L 216.692308 57.115343 
L 227.423077 57.115343 
L 238.153846 57.115343 
L 248.884615 59.224836 
L 259.615385 58.153863 
L 270.346154 55.005851 
L 281.076923 57.115343 
L 291.807692 59.224836 
L 302.538462 52.896358 
L 313.269231 55.005851 
" clip-path="url(#p9a8ecdc394)" style="fill: none; stroke: #0000ff; stroke-width: 1.5; stroke-linecap: round"/>
    <defs>
     <path id="m52b52dcf90" d="M 0 3 
C 0.795609 3 1.55874 2.683901 2.12132 2.12132 
C 2.683901 1.55874 3 0.795609 3 0 
C 3 -0.795609 2.683901 -1.55874 2.12132 -2.12132 
C 1.55874 -2.683901 0.795609 -3 0 -3 
C -0.795609 -3 -1.55874 -2.683901 -2.12132 -2.12132 
C -2.683901 -1.55874 -3 -0.795609 -3 0 
C -3 0.795609 -2.683901 1.55874 -2.12132 2.12132 
C -1.55874 2.683901 -0.795609 3 0 3 
z
"/>
    </defs>
    <g clip-path="url(#p9a8ecdc394)">
     <use xlink:href="#m52b52dcf90" x="55.730769" y="224.641504" style="fill: #0000ff"/>
     <use xlink:href="#m52b52dcf90" x="66.461538" y="159.312143" style="fill: #0000ff"/>
     <use xlink:href="#m52b52dcf90" x="77.192308" y="100.31126" style="fill: #0000ff"/>
     <use xlink:href="#m52b52dcf90" x="87.923077" y="86.615785" style="fill: #0000ff"/>
     <use xlink:href="#m52b52dcf90" x="98.653846" y="71.849337" style="fill: #0000ff"/>
     <use xlink:href="#m52b52dcf90" x="109.384615" y="66.591833" style="fill: #0000ff"/>
     <use xlink:href="#m52b52dcf90" x="120.115385" y="62.372848" style="fill: #0000ff"/>
     <use xlink:href="#m52b52dcf90" x="130.846154" y="57.115343" style="fill: #0000ff"/>
     <use xlink:href="#m52b52dcf90" x="141.576923" y="63.443821" style="fill: #0000ff"/>
     <use xlink:href="#m52b52dcf90" x="152.307692" y="56.04437" style="fill: #0000ff"/>
     <use xlink:href="#m52b52dcf90" x="163.038462" y="58.153863" style="fill: #0000ff"/>
     <use xlink:href="#m52b52dcf90" x="173.769231" y="58.153863" style="fill: #0000ff"/>
     <use xlink:href="#m52b52dcf90" x="184.5" y="53.837516" style="fill: #0000ff"/>
     <use xlink:href="#m52b52dcf90" x="195.230769" y="51.825385" style="fill: #0000ff"/>
     <use xlink:href="#m52b52dcf90" x="205.961538" y="58.153863" style="fill: #0000ff"/>
     <use xlink:href="#m52b52dcf90" x="216.692308" y="57.115343" style="fill: #0000ff"/>
     <use xlink:href="#m52b52dcf90" x="227.423077" y="57.115343" style="fill: #0000ff"/>
     <use xlink:href="#m52b52dcf90" x="238.153846" y="57.115343" style="fill: #0000ff"/>
     <use xlink:href="#m52b52dcf90" x="248.884615" y="59.224836" style="fill: #0000ff"/>
     <use xlink:href="#m52b52dcf90" x="259.615385" y="58.153863" style="fill: #0000ff"/>
     <use xlink:href="#m52b52dcf90" x="270.346154" y="55.005851" style="fill: #0000ff"/>
     <use xlink:href="#m52b52dcf90" x="281.076923" y="57.115343" style="fill: #0000ff"/>
     <use xlink:href="#m52b52dcf90" x="291.807692" y="59.224836" style="fill: #0000ff"/>
     <use xlink:href="#m52b52dcf90" x="302.538462" y="52.896358" style="fill: #0000ff"/>
     <use xlink:href="#m52b52dcf90" x="313.269231" y="55.005851" style="fill: #0000ff"/>
    </g>
   </g>
   <g id="line2d_28">
    <path d="M 55.730769 237.395821 
L 66.461538 196.828657 
L 77.192308 184.658507 
L 87.923077 140.034627 
L 98.653846 127.864478 
L 109.384615 107.580896 
L 120.115385 115.694328 
L 130.846154 103.524179 
L 141.576923 99.467463 
L 152.307692 87.297313 
L 163.038462 91.35403 
L 173.769231 95.410746 
L 184.5 95.410746 
L 195.230769 83.240597 
L 205.961538 87.297313 
L 216.692308 95.410746 
L 227.423077 87.297313 
L 238.153846 87.297313 
L 248.884615 83.240597 
L 259.615385 79.183881 
L 270.346154 83.240597 
L 281.076923 83.240597 
L 291.807692 75.127164 
L 302.538462 83.240597 
L 313.269231 79.183881 
" clip-path="url(#p9a8ecdc394)" style="fill: none; stroke: #ffa500; stroke-width: 1.5; stroke-linecap: round"/>
    <defs>
     <path id="m8a40d4cd16" d="M 0 4.242641 
L 4.242641 0 
L 0 -4.242641 
L -4.242641 0 
z
"/>
    </defs>
    <g clip-path="url(#p9a8ecdc394)">
     <use xlink:href="#m8a40d4cd16" x="55.730769" y="237.395821" style="fill: #ffa500"/>
     <use xlink:href="#m8a40d4cd16" x="66.461538" y="196.828657" style="fill: #ffa500"/>
     <use xlink:href="#m8a40d4cd16" x="77.192308" y="184.658507" style="fill: #ffa500"/>
     <use xlink:href="#m8a40d4cd16" x="87.923077" y="140.034627" style="fill: #ffa500"/>
     <use xlink:href="#m8a40d4cd16" x="98.653846" y="127.864478" style="fill: #ffa500"/>
     <use xlink:href="#m8a40d4cd16" x="109.384615" y="107.580896" style="fill: #ffa500"/>
     <use xlink:href="#m8a40d4cd16" x="120.115385" y="115.694328" style="fill: #ffa500"/>
     <use xlink:href="#m8a40d4cd16" x="130.846154" y="103.524179" style="fill: #ffa500"/>
     <use xlink:href="#m8a40d4cd16" x="141.576923" y="99.467463" style="fill: #ffa500"/>
     <use xlink:href="#m8a40d4cd16" x="152.307692" y="87.297313" style="fill: #ffa500"/>
     <use xlink:href="#m8a40d4cd16" x="163.038462" y="91.35403" style="fill: #ffa500"/>
     <use xlink:href="#m8a40d4cd16" x="173.769231" y="95.410746" style="fill: #ffa500"/>
     <use xlink:href="#m8a40d4cd16" x="184.5" y="95.410746" style="fill: #ffa500"/>
     <use xlink:href="#m8a40d4cd16" x="195.230769" y="83.240597" style="fill: #ffa500"/>
     <use xlink:href="#m8a40d4cd16" x="205.961538" y="87.297313" style="fill: #ffa500"/>
     <use xlink:href="#m8a40d4cd16" x="216.692308" y="95.410746" style="fill: #ffa500"/>
     <use xlink:href="#m8a40d4cd16" x="227.423077" y="87.297313" style="fill: #ffa500"/>
     <use xlink:href="#m8a40d4cd16" x="238.153846" y="87.297313" style="fill: #ffa500"/>
     <use xlink:href="#m8a40d4cd16" x="248.884615" y="83.240597" style="fill: #ffa500"/>
     <use xlink:href="#m8a40d4cd16" x="259.615385" y="79.183881" style="fill: #ffa500"/>
     <use xlink:href="#m8a40d4cd16" x="270.346154" y="83.240597" style="fill: #ffa500"/>
     <use xlink:href="#m8a40d4cd16" x="281.076923" y="83.240597" style="fill: #ffa500"/>
     <use xlink:href="#m8a40d4cd16" x="291.807692" y="75.127164" style="fill: #ffa500"/>
     <use xlink:href="#m8a40d4cd16" x="302.538462" y="83.240597" style="fill: #ffa500"/>
     <use xlink:href="#m8a40d4cd16" x="313.269231" y="79.183881" style="fill: #ffa500"/>
    </g>
   </g>
   <g id="line2d_29">
    <path d="M 61.855605 -1 
L 66.461538 47.573946 
L 77.192308 105.503857 
L 87.923077 141.1056 
L 98.653846 162.8496 
L 109.384615 174.403128 
L 120.115385 180.471976 
L 130.846154 195.887499 
L 141.576923 197.802269 
L 152.307692 208.512 
L 163.038462 217.534137 
L 173.769231 217.891128 
L 184.5 221.233863 
L 195.230769 226.458913 
L 205.961538 224.609051 
L 216.692308 230.483176 
L 227.423077 233.144382 
L 238.153846 233.598734 
L 248.884615 231.03489 
L 259.615385 234.182901 
L 270.346154 234.961791 
L 281.076923 236.811654 
L 291.807692 232.300585 
L 302.538462 241.160454 
L 313.269231 235.12406 
" clip-path="url(#p9a8ecdc394)" style="fill: none; stroke: #008000; stroke-width: 1.5; stroke-linecap: round"/>
    <defs>
     <path id="m480fe328e0" d="M -3 3 
L 3 3 
L 3 -3 
L -3 -3 
z
"/>
    </defs>
    <g clip-path="url(#p9a8ecdc394)">
     <use xlink:href="#m480fe328e0" x="61.855605" y="-1" style="fill: #008000"/>
     <use xlink:href="#m480fe328e0" x="66.461538" y="47.573946" style="fill: #008000"/>
     <use xlink:href="#m480fe328e0" x="77.192308" y="105.503857" style="fill: #008000"/>
     <use xlink:href="#m480fe328e0" x="87.923077" y="141.1056" style="fill: #008000"/>
     <use xlink:href="#m480fe328e0" x="98.653846" y="162.8496" style="fill: #008000"/>
     <use xlink:href="#m480fe328e0" x="109.384615" y="174.403128" style="fill: #008000"/>
     <use xlink:href="#m480fe328e0" x="120.115385" y="180.471976" style="fill: #008000"/>
     <use xlink:href="#m480fe328e0" x="130.846154" y="195.887499" style="fill: #008000"/>
     <use xlink:href="#m480fe328e0" x="141.576923" y="197.802269" style="fill: #008000"/>
     <use xlink:href="#m480fe328e0" x="152.307692" y="208.512" style="fill: #008000"/>
     <use xlink:href="#m480fe328e0" x="163.038462" y="217.534137" style="fill: #008000"/>
     <use xlink:href="#m480fe328e0" x="173.769231" y="217.891128" style="fill: #008000"/>
     <use xlink:href="#m480fe328e0" x="184.5" y="221.233863" style="fill: #008000"/>
     <use xlink:href="#m480fe328e0" x="195.230769" y="226.458913" style="fill: #008000"/>
     <use xlink:href="#m480fe328e0" x="205.961538" y="224.609051" style="fill: #008000"/>
     <use xlink:href="#m480fe328e0" x="216.692308" y="230.483176" style="fill: #008000"/>
     <use xlink:href="#m480fe328e0" x="227.423077" y="233.144382" style="fill: #008000"/>
     <use xlink:href="#m480fe328e0" x="238.153846" y="233.598734" style="fill: #008000"/>
     <use xlink:href="#m480fe328e0" x="248.884615" y="231.03489" style="fill: #008000"/>
     <use xlink:href="#m480fe328e0" x="259.615385" y="234.182901" style="fill: #008000"/>
     <use xlink:href="#m480fe328e0" x="270.346154" y="234.961791" style="fill: #008000"/>
     <use xlink:href="#m480fe328e0" x="281.076923" y="236.811654" style="fill: #008000"/>
     <use xlink:href="#m480fe328e0" x="291.807692" y="232.300585" style="fill: #008000"/>
     <use xlink:href="#m480fe328e0" x="302.538462" y="241.160454" style="fill: #008000"/>
     <use xlink:href="#m480fe328e0" x="313.269231" y="235.12406" style="fill: #008000"/>
    </g>
   </g>
   <g id="line2d_30">
    <path d="M 66.739817 -1 
L 77.192308 38.357087 
L 87.923077 92.100466 
L 98.653846 110.371916 
L 109.384615 134.452585 
L 120.115385 136.49717 
L 130.846154 146.590281 
L 141.576923 160.285755 
L 152.307692 166.484418 
L 163.038462 177.323964 
L 173.769231 179.044012 
L 184.5 174.889934 
L 195.230769 186.50837 
L 205.961538 185.599666 
L 216.692308 186.281194 
L 227.423077 179.108919 
L 238.153846 185.956657 
L 248.884615 190.792263 
L 259.615385 207.343666 
L 270.346154 203.38431 
L 281.076923 196.374304 
L 291.807692 208.512 
L 302.538462 201.46954 
L 313.269231 196.017313 
" clip-path="url(#p9a8ecdc394)" style="fill: none; stroke: #ff0000; stroke-width: 1.5; stroke-linecap: round"/>
    <defs>
     <path id="m68158cd00f" d="M -1.5 3 
L 0 1.5 
L 1.5 3 
L 3 1.5 
L 1.5 0 
L 3 -1.5 
L 1.5 -3 
L 0 -1.5 
L -1.5 -3 
L -3 -1.5 
L -1.5 0 
L -3 1.5 
z
"/>
    </defs>
    <g clip-path="url(#p9a8ecdc394)">
     <use xlink:href="#m68158cd00f" x="66.739817" y="-1" style="fill: #ff0000"/>
     <use xlink:href="#m68158cd00f" x="77.192308" y="38.357087" style="fill: #ff0000"/>
     <use xlink:href="#m68158cd00f" x="87.923077" y="92.100466" style="fill: #ff0000"/>
     <use xlink:href="#m68158cd00f" x="98.653846" y="110.371916" style="fill: #ff0000"/>
     <use xlink:href="#m68158cd00f" x="109.384615" y="134.452585" style="fill: #ff0000"/>
     <use xlink:href="#m68158cd00f" x="120.115385" y="136.49717" style="fill: #ff0000"/>
     <use xlink:href="#m68158cd00f" x="130.846154" y="146.590281" style="fill: #ff0000"/>
     <use xlink:href="#m68158cd00f" x="141.576923" y="160.285755" style="fill: #ff0000"/>
     <use xlink:href="#m68158cd00f" x="152.307692" y="166.484418" style="fill: #ff0000"/>
     <use xlink:href="#m68158cd00f" x="163.038462" y="177.323964" style="fill: #ff0000"/>
     <use xlink:href="#m68158cd00f" x="173.769231" y="179.044012" style="fill: #ff0000"/>
     <use xlink:href="#m68158cd00f" x="184.5" y="174.889934" style="fill: #ff0000"/>
     <use xlink:href="#m68158cd00f" x="195.230769" y="186.50837" style="fill: #ff0000"/>
     <use xlink:href="#m68158cd00f" x="205.961538" y="185.599666" style="fill: #ff0000"/>
     <use xlink:href="#m68158cd00f" x="216.692308" y="186.281194" style="fill: #ff0000"/>
     <use xlink:href="#m68158cd00f" x="227.423077" y="179.108919" style="fill: #ff0000"/>
     <use xlink:href="#m68158cd00f" x="238.153846" y="185.956657" style="fill: #ff0000"/>
     <use xlink:href="#m68158cd00f" x="248.884615" y="190.792263" style="fill: #ff0000"/>
     <use xlink:href="#m68158cd00f" x="259.615385" y="207.343666" style="fill: #ff0000"/>
     <use xlink:href="#m68158cd00f" x="270.346154" y="203.38431" style="fill: #ff0000"/>
     <use xlink:href="#m68158cd00f" x="281.076923" y="196.374304" style="fill: #ff0000"/>
     <use xlink:href="#m68158cd00f" x="291.807692" y="208.512" style="fill: #ff0000"/>
     <use xlink:href="#m68158cd00f" x="302.538462" y="201.46954" style="fill: #ff0000"/>
     <use xlink:href="#m68158cd00f" x="313.269231" y="196.017313" style="fill: #ff0000"/>
    </g>
   </g>
   <g id="patch_3">
    <path d="M 45 252 
L 45 34.56 
" style="fill: none"/>
   </g>
   <g id="patch_4">
    <path d="M 324 252 
L 324 34.56 
" style="fill: none"/>
   </g>
   <g id="patch_5">
    <path d="M 45 252 
L 324 252 
" style="fill: none"/>
   </g>
   <g id="patch_6">
    <path d="M 45 34.56 
L 324 34.56 
" style="fill: none"/>
   </g>
   <g id="text_16">
    <!-- T-DCNN Training -->
    <g style="fill: #262626" transform="translate(138.823125 28.56)scale(0.12 -0.12)">
     <defs>
      <path id="ArialMT-54" d="M 1659 0 
L 1659 4041 
L 150 4041 
L 150 4581 
L 3781 4581 
L 3781 4041 
L 2266 4041 
L 2266 0 
L 1659 0 
z
" transform="scale(0.015625)"/>
      <path id="ArialMT-2d" d="M 203 1375 
L 203 1941 
L 1931 1941 
L 1931 1375 
L 203 1375 
z
" transform="scale(0.015625)"/>
      <path id="ArialMT-44" d="M 494 0 
L 494 4581 
L 2072 4581 
Q 2606 4581 2888 4516 
Q 3281 4425 3559 4188 
Q 3922 3881 4101 3404 
Q 4281 2928 4281 2316 
Q 4281 1794 4159 1391 
Q 4038 988 3847 723 
Q 3656 459 3429 307 
Q 3203 156 2883 78 
Q 2563 0 2147 0 
L 494 0 
z
M 1100 541 
L 2078 541 
Q 2531 541 2789 625 
Q 3047 709 3200 863 
Q 3416 1078 3536 1442 
Q 3656 1806 3656 2325 
Q 3656 3044 3420 3430 
Q 3184 3816 2847 3947 
Q 2603 4041 2063 4041 
L 1100 4041 
L 1100 541 
z
" transform="scale(0.015625)"/>
      <path id="ArialMT-43" d="M 3763 1606 
L 4369 1453 
Q 4178 706 3683 314 
Q 3188 -78 2472 -78 
Q 1731 -78 1267 223 
Q 803 525 561 1097 
Q 319 1669 319 2325 
Q 319 3041 592 3573 
Q 866 4106 1370 4382 
Q 1875 4659 2481 4659 
Q 3169 4659 3637 4309 
Q 4106 3959 4291 3325 
L 3694 3184 
Q 3534 3684 3231 3912 
Q 2928 4141 2469 4141 
Q 1941 4141 1586 3887 
Q 1231 3634 1087 3207 
Q 944 2781 944 2328 
Q 944 1744 1114 1308 
Q 1284 872 1643 656 
Q 2003 441 2422 441 
Q 2931 441 3284 734 
Q 3638 1028 3763 1606 
z
" transform="scale(0.015625)"/>
      <path id="ArialMT-4e" d="M 488 0 
L 488 4581 
L 1109 4581 
L 3516 984 
L 3516 4581 
L 4097 4581 
L 4097 0 
L 3475 0 
L 1069 3600 
L 1069 0 
L 488 0 
z
" transform="scale(0.015625)"/>
      <path id="ArialMT-20" transform="scale(0.015625)"/>
      <path id="ArialMT-69" d="M 425 3934 
L 425 4581 
L 988 4581 
L 988 3934 
L 425 3934 
z
M 425 0 
L 425 3319 
L 988 3319 
L 988 0 
L 425 0 
z
" transform="scale(0.015625)"/>
      <path id="ArialMT-6e" d="M 422 0 
L 422 3319 
L 928 3319 
L 928 2847 
Q 1294 3394 1984 3394 
Q 2284 3394 2536 3286 
Q 2788 3178 2913 3003 
Q 3038 2828 3088 2588 
Q 3119 2431 3119 2041 
L 3119 0 
L 2556 0 
L 2556 2019 
Q 2556 2363 2490 2533 
Q 2425 2703 2258 2804 
Q 2091 2906 1866 2906 
Q 1506 2906 1245 2678 
Q 984 2450 984 1813 
L 984 0 
L 422 0 
z
" transform="scale(0.015625)"/>
      <path id="ArialMT-67" d="M 319 -275 
L 866 -356 
Q 900 -609 1056 -725 
Q 1266 -881 1628 -881 
Q 2019 -881 2231 -725 
Q 2444 -569 2519 -288 
Q 2563 -116 2559 434 
Q 2191 0 1641 0 
Q 956 0 581 494 
Q 206 988 206 1678 
Q 206 2153 378 2554 
Q 550 2956 876 3175 
Q 1203 3394 1644 3394 
Q 2231 3394 2613 2919 
L 2613 3319 
L 3131 3319 
L 3131 450 
Q 3131 -325 2973 -648 
Q 2816 -972 2473 -1159 
Q 2131 -1347 1631 -1347 
Q 1038 -1347 672 -1080 
Q 306 -813 319 -275 
z
M 784 1719 
Q 784 1066 1043 766 
Q 1303 466 1694 466 
Q 2081 466 2343 764 
Q 2606 1063 2606 1700 
Q 2606 2309 2336 2618 
Q 2066 2928 1684 2928 
Q 1309 2928 1046 2623 
Q 784 2319 784 1719 
z
" transform="scale(0.015625)"/>
     </defs>
     <use xlink:href="#ArialMT-54"/>
     <use xlink:href="#ArialMT-2d" x="55.583984"/>
     <use xlink:href="#ArialMT-44" x="88.884766"/>
     <use xlink:href="#ArialMT-43" x="161.101562"/>
     <use xlink:href="#ArialMT-4e" x="233.318359"/>
     <use xlink:href="#ArialMT-4e" x="305.535156"/>
     <use xlink:href="#ArialMT-20" x="377.751953"/>
     <use xlink:href="#ArialMT-54" x="403.785156"/>
     <use xlink:href="#ArialMT-72" x="461.119141"/>
     <use xlink:href="#ArialMT-61" x="494.419922"/>
     <use xlink:href="#ArialMT-69" x="550.035156"/>
     <use xlink:href="#ArialMT-6e" x="572.251953"/>
     <use xlink:href="#ArialMT-69" x="627.867188"/>
     <use xlink:href="#ArialMT-6e" x="650.083984"/>
     <use xlink:href="#ArialMT-67" x="705.699219"/>
    </g>
   </g>
   <g id="legend_1">
    <g id="line2d_31">
     <path d="M 240.69375 121.147188 
L 250.69375 121.147188 
L 260.69375 121.147188 
" style="fill: none; stroke: #0000ff; stroke-width: 1.5; stroke-linecap: round"/>
     <g>
      <use xlink:href="#m52b52dcf90" x="250.69375" y="121.147188" style="fill: #0000ff"/>
     </g>
    </g>
    <g id="text_17">
     <!-- Train Acc -->
     <g style="fill: #262626" transform="translate(268.69375 124.647188)scale(0.1 -0.1)">
      <use xlink:href="#ArialMT-54"/>
      <use xlink:href="#ArialMT-72" x="57.333984"/>
      <use xlink:href="#ArialMT-61" x="90.634766"/>
      <use xlink:href="#ArialMT-69" x="146.25"/>
      <use xlink:href="#ArialMT-6e" x="168.466797"/>
      <use xlink:href="#ArialMT-20" x="224.082031"/>
      <use xlink:href="#ArialMT-41" x="246.365234"/>
      <use xlink:href="#ArialMT-63" x="313.064453"/>
      <use xlink:href="#ArialMT-63" x="363.064453"/>
     </g>
    </g>
    <g id="line2d_32">
     <path d="M 240.69375 135.2925 
L 250.69375 135.2925 
L 260.69375 135.2925 
" style="fill: none; stroke: #ffa500; stroke-width: 1.5; stroke-linecap: round"/>
     <g>
      <use xlink:href="#m8a40d4cd16" x="250.69375" y="135.2925" style="fill: #ffa500"/>
     </g>
    </g>
    <g id="text_18">
     <!-- Val Acc -->
     <g style="fill: #262626" transform="translate(268.69375 138.7925)scale(0.1 -0.1)">
      <defs>
       <path id="ArialMT-56" d="M 1803 0 
L 28 4581 
L 684 4581 
L 1875 1253 
Q 2019 853 2116 503 
Q 2222 878 2363 1253 
L 3600 4581 
L 4219 4581 
L 2425 0 
L 1803 0 
z
" transform="scale(0.015625)"/>
       <path id="ArialMT-6c" d="M 409 0 
L 409 4581 
L 972 4581 
L 972 0 
L 409 0 
z
" transform="scale(0.015625)"/>
      </defs>
      <use xlink:href="#ArialMT-56"/>
      <use xlink:href="#ArialMT-61" x="59.324219"/>
      <use xlink:href="#ArialMT-6c" x="114.939453"/>
      <use xlink:href="#ArialMT-20" x="137.15625"/>
      <use xlink:href="#ArialMT-41" x="159.439453"/>
      <use xlink:href="#ArialMT-63" x="226.138672"/>
      <use xlink:href="#ArialMT-63" x="276.138672"/>
     </g>
    </g>
    <g id="line2d_33">
     <path d="M 240.69375 149.437813 
L 250.69375 149.437813 
L 260.69375 149.437813 
" style="fill: none; stroke: #008000; stroke-width: 1.5; stroke-linecap: round"/>
     <g>
      <use xlink:href="#m480fe328e0" x="250.69375" y="149.437813" style="fill: #008000"/>
     </g>
    </g>
    <g id="text_19">
     <!-- Train Loss -->
     <g style="fill: #262626" transform="translate(268.69375 152.937813)scale(0.1 -0.1)">
      <use xlink:href="#ArialMT-54"/>
      <use xlink:href="#ArialMT-72" x="57.333984"/>
      <use xlink:href="#ArialMT-61" x="90.634766"/>
      <use xlink:href="#ArialMT-69" x="146.25"/>
      <use xlink:href="#ArialMT-6e" x="168.466797"/>
      <use xlink:href="#ArialMT-20" x="224.082031"/>
      <use xlink:href="#ArialMT-4c" x="251.865234"/>
      <use xlink:href="#ArialMT-6f" x="307.480469"/>
      <use xlink:href="#ArialMT-73" x="363.095703"/>
      <use xlink:href="#ArialMT-73" x="413.095703"/>
     </g>
    </g>
    <g id="line2d_34">
     <path d="M 240.69375 163.583125 
L 250.69375 163.583125 
L 260.69375 163.583125 
" style="fill: none; stroke: #ff0000; stroke-width: 1.5; stroke-linecap: round"/>
     <g>
      <use xlink:href="#m68158cd00f" x="250.69375" y="163.583125" style="fill: #ff0000"/>
     </g>
    </g>
    <g id="text_20">
     <!-- Val Loss -->
     <g style="fill: #262626" transform="translate(268.69375 167.083125)scale(0.1 -0.1)">
      <use xlink:href="#ArialMT-56"/>
      <use xlink:href="#ArialMT-61" x="59.324219"/>
      <use xlink:href="#ArialMT-6c" x="114.939453"/>
      <use xlink:href="#ArialMT-20" x="137.15625"/>
      <use xlink:href="#ArialMT-4c" x="164.939453"/>
      <use xlink:href="#ArialMT-6f" x="220.554688"/>
      <use xlink:href="#ArialMT-73" x="276.169922"/>
      <use xlink:href="#ArialMT-73" x="326.169922"/>
     </g>
    </g>
   </g>
  </g>
 </g>
 <defs>
  <clipPath id="p9a8ecdc394">
   <rect x="45" y="34.56" width="279" height="217.44"/>
  </clipPath>
 </defs>
</svg>
